<?xml version="1.0" encoding="UTF-8"?>
<svg id="_레이어_2" data-name="레이어 2" xmlns="http://www.w3.org/2000/svg" viewBox="0 0 16 16">
  <defs>
    <style>
      .cls-1 {
        fill: #595757;
      }

      .cls-2 {
        fill: #eeb330;
      }
    </style>
  </defs>
  <g id="_레이어_1-2" data-name="레이어 1">
    <g>
      <path class="cls-2" d="m13.88,3.64h-.4v-.5c0-.16-.1-.28-.23-.28s-.23.13-.23.28v.5h-.4c-.12,0-.23.13-.23.28s.1.28.23.28h.4v.5c0,.16.1.28.23.28s.23-.13.23-.28v-.5h.4c.12,0,.23-.13.23-.28s-.1-.28-.23-.28Z"/>
      <g>
        <path class="cls-1" d="m3.75,7.83c.21.15.47.25.76.31.3.06.62.09.98.09.14,0,.46,0,.62-.02.17-.01.34-.04.51-.07.17-.03.35-.08.52-.14.17-.06.33-.14.48-.23.13-.08.22-.18.27-.29.05-.12.05-.25-.01-.42-.05-.14-.14-.22-.25-.22-.11,0-.22.03-.33.09-.09.06-.2.11-.33.15-.13.04-.27.08-.41.11-.15.03-.3.05-.46.07-.16.02-.46.02-.61.02-.19,0-.38,0-.56-.03-.18-.02-.34-.07-.47-.14-.14-.08-.25-.2-.33-.36-.08-.16-.12-.39-.12-.69v-.89c0-.18-.04-.32-.13-.42-.09-.1-.2-.15-.33-.15s-.23.05-.33.15c-.09.1-.14.24-.14.42v1.09c0,.39.06.72.18.97.12.26.29.46.5.6Z"/>
        <path class="cls-1" d="m.43,9.32c-.24,0-.43.24-.43.53v3.29c0,1.57,1.02,2.85,2.28,2.85h11.44c1.26,0,2.28-1.28,2.28-2.85v-6.74c0-.3-.19-.53-.43-.53s-.43.24-.43.53v6.74c0,.98-.64,1.78-1.43,1.78h-7.28v-4.66h3.52v1.04c0,.4.05.73.16.96.1.24.25.42.43.55.18.13.39.21.63.25.24.04.5.06.78.06s.54-.03.78-.1c.25-.07.48-.16.69-.26.13-.07.23-.16.29-.27.06-.11.07-.26.01-.46-.03-.11-.1-.19-.2-.22-.1-.03-.22-.02-.34.03-.18.09-.37.15-.57.2-.2.05-.42.07-.66.08-.37,0-.65-.05-.81-.17-.17-.12-.25-.33-.25-.63v-.48c0-.11.01-.52.04-.55.02-.03.07-.05.14-.05h1.66c.24,0,.41-.07.52-.21.11-.14.16-.34.16-.61v-1.73c0-.26-.05-.46-.16-.61-.11-.14-.28-.21-.52-.21h-2.39c-.11,0-.21.05-.28.15-.07.1-.1.21-.1.33,0,.14.03.25.1.33.07.09.16.13.28.13h1.96c.06,0,.1,0,.13.03.03.02.04.07.04.14v1.15c0,.06-.01.11-.04.13-.03.03-.07.04-.14.04H.43Zm5.08,5.61h-3.23c-.79,0-1.43-.8-1.43-1.78v-2.88h4.66v4.66Z"/>
      </g>
      <path class="cls-1" d="m.43,5.41c-.12,0-.21-.12-.21-.27V1.9C.21.85.9,0,1.74,0h1.93c.12,0,.21.12.21.27s-.1.27-.21.27h-1.93c-.6,0-1.1.61-1.1,1.37v3.24c0,.15-.1.27-.21.27Z"/>
      <g>
        <path class="cls-1" d="m5.49,2.85c0-.09.02-.16.07-.2.04-.05.1-.07.16-.07s.12.02.16.07c.04.05.07.12.07.2v.36c0,.14.02.25.06.33.04.08.1.14.17.18.07.04.15.06.24.07.09,0,.18.01.28.01.07,0,.14,0,.22-.02.08-.01.15-.03.23-.05.08-.02.15-.04.21-.07.06-.03.12-.05.16-.08.05-.03.1-.04.16-.04.06,0,.1.04.12.11.03.08.03.15,0,.2-.03.06-.07.1-.13.14-.07.05-.15.08-.23.12-.08.03-.17.06-.26.08-.09.02-.17.04-.26.05-.08.01-.16.02-.23.02-.17,0-.33-.01-.48-.04-.15-.03-.27-.08-.38-.15-.11-.07-.19-.17-.25-.29-.06-.12-.09-.28-.09-.47v-.46Z"/>
        <path class="cls-1" d="m7.72.08c-.05-.05-.1-.08-.16-.08h-.66c-.06,0-.1.02-.14.07-.03.05-.05.1-.05.16,0,.07.02.12.05.17.03.04.08.07.14.07h.43v2.27c0,.09.02.16.07.21.04.05.1.07.16.07s.12-.02.16-.07c.05-.05.07-.12.07-.21V.29c0-.09-.02-.16-.07-.21Z"/>
        <path class="cls-1" d="m5.83.73c.03-.07.04-.14.03-.19,0-.05-.05-.07-.11-.07h-.84c-.06,0-.1-.02-.14-.07-.03-.04-.05-.1-.05-.17,0-.06.02-.12.05-.17.03-.05.08-.07.14-.07h1.1c.16,0,.27.05.32.16.06.11.06.26.02.44-.08.36-.24.68-.48.96-.24.28-.54.5-.9.67-.01,0-.04.02-.07.03-.03.01-.06.02-.1.02s-.07-.01-.1-.03c-.03-.02-.06-.06-.08-.12-.01-.04-.02-.08-.01-.12,0-.03.02-.06.04-.09.02-.02.04-.05.06-.06.02-.02.04-.03.06-.04.25-.12.47-.27.65-.47.18-.19.32-.4.41-.64Z"/>
        <path class="cls-1" d="m9.63.73c.03-.07.04-.14.03-.19,0-.05-.05-.07-.11-.07h-.89c-.06,0-.1-.02-.14-.07-.03-.04-.05-.1-.05-.17,0-.06.02-.12.05-.17.03-.05.08-.07.14-.07h1.15c.16,0,.27.05.33.16.06.11.06.26.02.44-.08.35-.25.66-.49.93-.24.27-.54.49-.9.66-.01,0-.04.02-.07.03-.03.01-.06.02-.1.02s-.07-.01-.1-.03c-.03-.02-.06-.06-.08-.12-.01-.04-.02-.08-.01-.12,0-.03.02-.06.04-.09.02-.02.04-.05.06-.06.02-.02.04-.03.06-.04.25-.12.47-.27.66-.45.19-.18.33-.39.42-.61Z"/>
      </g>
      <g>
        <path class="cls-1" d="m10.99,2.65c-.21-.17-.52-.25-.93-.25s-.72.08-.93.25c-.21.17-.32.4-.32.7s.11.53.32.7c.21.17.52.25.93.25s.72-.08.93-.25c.21-.17.32-.4.32-.7s-.11-.53-.32-.7Zm-.35,1.06c-.14.08-.33.12-.58.12s-.44-.04-.58-.12c-.14-.08-.2-.2-.2-.36s.07-.29.2-.36c.14-.08.33-.12.58-.12s.44.04.58.12c.14.08.21.2.21.36s-.07.28-.21.36Z"/>
        <path class="cls-1" d="m14.26.53c.6,0,1.1.61,1.1,1.37v2.61c0,.15.1.27.21.27s.21-.12.21-.27V1.9c0-1.05-.68-1.9-1.52-1.9h-3.18c-.07,0-.12.03-.16.08-.04.05-.07.12-.07.21v1.77c0,.09.02.16.07.21.04.05.1.07.16.07s.12-.02.16-.07c.05-.05.07-.12.07-.21V.53h2.95Z"/>
      </g>
    </g>
  </g>
</svg>